<svg width="68" height="50" viewBox="0 0 68 50" fill="none" xmlns="http://www.w3.org/2000/svg">
  <path d="M39.72 0C40.14 0 40.38 0.3 40.38 0.54V47.46C40.38 47.7 40.14 48 39.72 48H31.8C31.68 48 31.32 47.94 31.26 47.82L9.18 16.2V36.48H0V0.54C0 0.3 0.3 0 0.6 0H8.58C8.7 0 9.06 0.0599992 9.12 0.179998L31.26 31.8V0.54C31.26 0.3 31.56 0 31.98 0H39.72Z" fill="url(#paint0_linear_58_546)"/>
  <path d="M48.9 17.4H58.02V47.46C58.02 47.7 57.72 48 57.3 48H49.56C49.14 48 48.9 47.7 48.9 47.46V17.4ZM39.66 8.22C39.3 8.22 39 7.98 39 7.68V0.54C39 0.3 39.3 0 39.66 0H67.2C67.62 0 67.86 0.3 67.86 0.54V7.68C67.86 7.98 67.62 8.22 67.2 8.22H39.66Z" fill="url(#paint1_linear_58_546)"/>
  <path d="M50.344 29.896C54.904 31.288 57.448 34.6 57.448 39.352C57.448 45.592 52.744 49.24 44.968 49.24C37.144 49.24 32.44 45.592 32.44 39.352C32.44 34.6 34.984 31.288 39.592 29.896C35.896 28.744 33.88 26.344 33.88 22.84C33.88 18.088 37.96 15.352 44.968 15.352C51.928 15.352 56.008 18.088 56.008 22.84C56.008 26.344 53.992 28.744 50.344 29.896ZM48.664 17.08C47.56 16.84 46.36 16.744 44.968 16.744C43.576 16.744 42.328 16.84 41.224 17.08V28.84C42.328 29.08 43.576 29.176 44.968 29.176C46.36 29.176 47.56 29.08 48.664 28.84V17.08ZM35.32 22.84C35.32 25.576 36.856 27.496 39.784 28.456V17.416C36.856 18.376 35.32 20.2 35.32 22.84ZM54.568 22.84C54.568 20.2 53.032 18.328 50.104 17.416V28.456C53.032 27.496 54.568 25.576 54.568 22.84ZM41.224 47.464C42.376 47.704 43.624 47.8 44.968 47.8C46.312 47.8 47.56 47.704 48.664 47.464V30.952C47.56 30.712 46.312 30.616 44.968 30.616C43.624 30.616 42.376 30.712 41.224 30.952V47.464ZM33.88 39.352C33.88 43.24 35.992 45.88 39.784 47.08V31.336C35.944 32.584 33.88 35.32 33.88 39.352ZM50.104 47.128C53.944 45.928 56.008 43.24 56.008 39.352C56.008 35.32 53.944 32.536 50.104 31.336V47.128Z" fill="white"/>
  <defs>
    <linearGradient id="paint0_linear_58_546" x1="33.93" y1="0" x2="33.93" y2="49.24" gradientUnits="userSpaceOnUse">
      <stop stop-color="#11B6DC"/>
      <stop offset="1" stop-color="#E40ECF"/>
    </linearGradient>
    <linearGradient id="paint1_linear_58_546" x1="33.93" y1="0" x2="33.93" y2="49.24" gradientUnits="userSpaceOnUse">
      <stop stop-color="#11B6DC"/>
      <stop offset="1" stop-color="#E40ECF"/>
    </linearGradient>
  </defs>
</svg>
