<svg width="128" height="128" viewBox="0 0 128 128" fill="none" xmlns="http://www.w3.org/2000/svg">
<g filter="url(#filter0_d_15_145)">
<g filter="url(#filter1_i_15_145)">
<path d="M44 81.1039C37.3726 81.1039 32 75.7313 32 69.1039V69.1039C32 62.4765 37.3726 57.1039 44 57.1039L100 57.1039C106.627 57.1039 112 62.4765 112 69.1039V69.1039C112 75.7313 106.627 81.1039 100 81.1039L44 81.1039Z" fill="url(#paint0_linear_15_145)"/>
</g>
<g filter="url(#filter2_i_15_145)">
<path d="M44 41.1039C37.3726 41.1039 32 35.7313 32 29.1039V29.1039C32 22.4765 37.3726 17.1039 44 17.1039L100 17.1039C106.627 17.1039 112 22.4765 112 29.1039V29.1039C112 35.7313 106.627 41.1039 100 41.1039L44 41.1039Z" fill="url(#paint1_linear_15_145)"/>
</g>
<g filter="url(#filter3_bii_15_145)">
<path d="M28 93.1039C21.3726 93.1039 16 87.7313 16 81.1039V81.1039C16 74.4765 21.3726 69.1039 28 69.1039L84 69.1039C90.6274 69.1039 96 74.4765 96 81.1039V81.1039C96 87.7313 90.6274 93.1039 84 93.1039L28 93.1039Z" fill="white" fill-opacity="0.4"/>
</g>
<g filter="url(#filter4_bii_15_145)">
<path d="M28 53.1039C21.3726 53.1039 16 47.7313 16 41.1039V41.1039C16 34.4765 21.3726 29.1039 28 29.1039L84 29.1039C90.6274 29.1039 96 34.4765 96 41.1039V41.1039C96 47.7313 90.6274 53.1039 84 53.1039L28 53.1039Z" fill="white" fill-opacity="0.4"/>
</g>
<g filter="url(#filter5_i_15_145)">
<path d="M38 41.1039C38 46.6267 33.5228 51.1039 28 51.1039C22.4772 51.1039 18 46.6267 18 41.1039C18 35.581 22.4772 31.1039 28 31.1039C33.5228 31.1039 38 35.581 38 41.1039Z" fill="url(#paint2_linear_15_145)"/>
</g>
<g filter="url(#filter6_i_15_145)">
<path d="M93 81.1039C93 86.6267 88.5228 91.1039 83 91.1039C77.4772 91.1039 73 86.6267 73 81.1039C73 75.581 77.4772 71.1039 83 71.1039C88.5228 71.1039 93 75.581 93 81.1039Z" fill="url(#paint3_linear_15_145)"/>
</g>
<g filter="url(#filter7_ii_15_145)">
<path d="M34 41.1039C34 44.4176 31.3137 47.1039 28 47.1039C24.6863 47.1039 22 44.4176 22 41.1039C22 37.7902 24.6863 35.1039 28 35.1039C31.3137 35.1039 34 37.7902 34 41.1039Z" fill="white" fill-opacity="0.6"/>
</g>
<g filter="url(#filter8_ii_15_145)">
<path d="M89 81.1039C89 84.4176 86.3137 87.1039 83 87.1039C79.6863 87.1039 77 84.4176 77 81.1039C77 77.7902 79.6863 75.1039 83 75.1039C86.3137 75.1039 89 77.7902 89 81.1039Z" fill="white" fill-opacity="0.6"/>
</g>
</g>
<defs>
<filter id="filter0_d_15_145" x="12" y="13.1039" width="112" height="92" filterUnits="userSpaceOnUse" color-interpolation-filters="sRGB">
<feFlood flood-opacity="0" result="BackgroundImageFix"/>
<feColorMatrix in="SourceAlpha" type="matrix" values="0 0 0 0 0 0 0 0 0 0 0 0 0 0 0 0 0 0 127 0" result="hardAlpha"/>
<feOffset dx="4" dy="4"/>
<feGaussianBlur stdDeviation="4"/>
<feColorMatrix type="matrix" values="0 0 0 0 0 0 0 0 0 0 0 0 0 0 0 0 0 0 0.4 0"/>
<feBlend mode="normal" in2="BackgroundImageFix" result="effect1_dropShadow_15_145"/>
<feBlend mode="normal" in="SourceGraphic" in2="effect1_dropShadow_15_145" result="shape"/>
</filter>
<filter id="filter1_i_15_145" x="32" y="57.1039" width="80" height="24" filterUnits="userSpaceOnUse" color-interpolation-filters="sRGB">
<feFlood flood-opacity="0" result="BackgroundImageFix"/>
<feBlend mode="normal" in="SourceGraphic" in2="BackgroundImageFix" result="shape"/>
<feColorMatrix in="SourceAlpha" type="matrix" values="0 0 0 0 0 0 0 0 0 0 0 0 0 0 0 0 0 0 127 0" result="hardAlpha"/>
<feOffset/>
<feGaussianBlur stdDeviation="4"/>
<feComposite in2="hardAlpha" operator="arithmetic" k2="-1" k3="1"/>
<feColorMatrix type="matrix" values="0 0 0 0 1 0 0 0 0 1 0 0 0 0 1 0 0 0 0.8 0"/>
<feBlend mode="normal" in2="shape" result="effect1_innerShadow_15_145"/>
</filter>
<filter id="filter2_i_15_145" x="32" y="17.1039" width="80" height="24" filterUnits="userSpaceOnUse" color-interpolation-filters="sRGB">
<feFlood flood-opacity="0" result="BackgroundImageFix"/>
<feBlend mode="normal" in="SourceGraphic" in2="BackgroundImageFix" result="shape"/>
<feColorMatrix in="SourceAlpha" type="matrix" values="0 0 0 0 0 0 0 0 0 0 0 0 0 0 0 0 0 0 127 0" result="hardAlpha"/>
<feOffset/>
<feGaussianBlur stdDeviation="4"/>
<feComposite in2="hardAlpha" operator="arithmetic" k2="-1" k3="1"/>
<feColorMatrix type="matrix" values="0 0 0 0 1 0 0 0 0 1 0 0 0 0 1 0 0 0 0.8 0"/>
<feBlend mode="normal" in2="shape" result="effect1_innerShadow_15_145"/>
</filter>
<filter id="filter3_bii_15_145" x="12" y="65.1039" width="88" height="32" filterUnits="userSpaceOnUse" color-interpolation-filters="sRGB">
<feFlood flood-opacity="0" result="BackgroundImageFix"/>
<feGaussianBlur in="BackgroundImageFix" stdDeviation="2"/>
<feComposite in2="SourceAlpha" operator="in" result="effect1_backgroundBlur_15_145"/>
<feBlend mode="normal" in="SourceGraphic" in2="effect1_backgroundBlur_15_145" result="shape"/>
<feColorMatrix in="SourceAlpha" type="matrix" values="0 0 0 0 0 0 0 0 0 0 0 0 0 0 0 0 0 0 127 0" result="hardAlpha"/>
<feOffset/>
<feGaussianBlur stdDeviation="2"/>
<feComposite in2="hardAlpha" operator="arithmetic" k2="-1" k3="1"/>
<feColorMatrix type="matrix" values="0 0 0 0 1 0 0 0 0 1 0 0 0 0 1 0 0 0 1 0"/>
<feBlend mode="normal" in2="shape" result="effect2_innerShadow_15_145"/>
<feColorMatrix in="SourceAlpha" type="matrix" values="0 0 0 0 0 0 0 0 0 0 0 0 0 0 0 0 0 0 127 0" result="hardAlpha"/>
<feOffset dy="4"/>
<feGaussianBlur stdDeviation="4"/>
<feComposite in2="hardAlpha" operator="arithmetic" k2="-1" k3="1"/>
<feColorMatrix type="matrix" values="0 0 0 0 1 0 0 0 0 1 0 0 0 0 1 0 0 0 1 0"/>
<feBlend mode="normal" in2="effect2_innerShadow_15_145" result="effect3_innerShadow_15_145"/>
</filter>
<filter id="filter4_bii_15_145" x="12" y="25.1039" width="88" height="32" filterUnits="userSpaceOnUse" color-interpolation-filters="sRGB">
<feFlood flood-opacity="0" result="BackgroundImageFix"/>
<feGaussianBlur in="BackgroundImageFix" stdDeviation="2"/>
<feComposite in2="SourceAlpha" operator="in" result="effect1_backgroundBlur_15_145"/>
<feBlend mode="normal" in="SourceGraphic" in2="effect1_backgroundBlur_15_145" result="shape"/>
<feColorMatrix in="SourceAlpha" type="matrix" values="0 0 0 0 0 0 0 0 0 0 0 0 0 0 0 0 0 0 127 0" result="hardAlpha"/>
<feOffset/>
<feGaussianBlur stdDeviation="2"/>
<feComposite in2="hardAlpha" operator="arithmetic" k2="-1" k3="1"/>
<feColorMatrix type="matrix" values="0 0 0 0 1 0 0 0 0 1 0 0 0 0 1 0 0 0 1 0"/>
<feBlend mode="normal" in2="shape" result="effect2_innerShadow_15_145"/>
<feColorMatrix in="SourceAlpha" type="matrix" values="0 0 0 0 0 0 0 0 0 0 0 0 0 0 0 0 0 0 127 0" result="hardAlpha"/>
<feOffset dy="4"/>
<feGaussianBlur stdDeviation="4"/>
<feComposite in2="hardAlpha" operator="arithmetic" k2="-1" k3="1"/>
<feColorMatrix type="matrix" values="0 0 0 0 1 0 0 0 0 1 0 0 0 0 1 0 0 0 1 0"/>
<feBlend mode="normal" in2="effect2_innerShadow_15_145" result="effect3_innerShadow_15_145"/>
</filter>
<filter id="filter5_i_15_145" x="18" y="31.1039" width="20" height="20" filterUnits="userSpaceOnUse" color-interpolation-filters="sRGB">
<feFlood flood-opacity="0" result="BackgroundImageFix"/>
<feBlend mode="normal" in="SourceGraphic" in2="BackgroundImageFix" result="shape"/>
<feColorMatrix in="SourceAlpha" type="matrix" values="0 0 0 0 0 0 0 0 0 0 0 0 0 0 0 0 0 0 127 0" result="hardAlpha"/>
<feOffset/>
<feGaussianBlur stdDeviation="4"/>
<feComposite in2="hardAlpha" operator="arithmetic" k2="-1" k3="1"/>
<feColorMatrix type="matrix" values="0 0 0 0 1 0 0 0 0 1 0 0 0 0 1 0 0 0 0.8 0"/>
<feBlend mode="normal" in2="shape" result="effect1_innerShadow_15_145"/>
</filter>
<filter id="filter6_i_15_145" x="73" y="71.1039" width="20" height="20" filterUnits="userSpaceOnUse" color-interpolation-filters="sRGB">
<feFlood flood-opacity="0" result="BackgroundImageFix"/>
<feBlend mode="normal" in="SourceGraphic" in2="BackgroundImageFix" result="shape"/>
<feColorMatrix in="SourceAlpha" type="matrix" values="0 0 0 0 0 0 0 0 0 0 0 0 0 0 0 0 0 0 127 0" result="hardAlpha"/>
<feOffset/>
<feGaussianBlur stdDeviation="4"/>
<feComposite in2="hardAlpha" operator="arithmetic" k2="-1" k3="1"/>
<feColorMatrix type="matrix" values="0 0 0 0 1 0 0 0 0 1 0 0 0 0 1 0 0 0 0.8 0"/>
<feBlend mode="normal" in2="shape" result="effect1_innerShadow_15_145"/>
</filter>
<filter id="filter7_ii_15_145" x="22" y="35.1039" width="12" height="16" filterUnits="userSpaceOnUse" color-interpolation-filters="sRGB">
<feFlood flood-opacity="0" result="BackgroundImageFix"/>
<feBlend mode="normal" in="SourceGraphic" in2="BackgroundImageFix" result="shape"/>
<feColorMatrix in="SourceAlpha" type="matrix" values="0 0 0 0 0 0 0 0 0 0 0 0 0 0 0 0 0 0 127 0" result="hardAlpha"/>
<feOffset/>
<feGaussianBlur stdDeviation="2"/>
<feComposite in2="hardAlpha" operator="arithmetic" k2="-1" k3="1"/>
<feColorMatrix type="matrix" values="0 0 0 0 1 0 0 0 0 1 0 0 0 0 1 0 0 0 1 0"/>
<feBlend mode="normal" in2="shape" result="effect1_innerShadow_15_145"/>
<feColorMatrix in="SourceAlpha" type="matrix" values="0 0 0 0 0 0 0 0 0 0 0 0 0 0 0 0 0 0 127 0" result="hardAlpha"/>
<feOffset dy="4"/>
<feGaussianBlur stdDeviation="4"/>
<feComposite in2="hardAlpha" operator="arithmetic" k2="-1" k3="1"/>
<feColorMatrix type="matrix" values="0 0 0 0 1 0 0 0 0 1 0 0 0 0 1 0 0 0 1 0"/>
<feBlend mode="normal" in2="effect1_innerShadow_15_145" result="effect2_innerShadow_15_145"/>
</filter>
<filter id="filter8_ii_15_145" x="77" y="75.1039" width="12" height="16" filterUnits="userSpaceOnUse" color-interpolation-filters="sRGB">
<feFlood flood-opacity="0" result="BackgroundImageFix"/>
<feBlend mode="normal" in="SourceGraphic" in2="BackgroundImageFix" result="shape"/>
<feColorMatrix in="SourceAlpha" type="matrix" values="0 0 0 0 0 0 0 0 0 0 0 0 0 0 0 0 0 0 127 0" result="hardAlpha"/>
<feOffset/>
<feGaussianBlur stdDeviation="2"/>
<feComposite in2="hardAlpha" operator="arithmetic" k2="-1" k3="1"/>
<feColorMatrix type="matrix" values="0 0 0 0 1 0 0 0 0 1 0 0 0 0 1 0 0 0 1 0"/>
<feBlend mode="normal" in2="shape" result="effect1_innerShadow_15_145"/>
<feColorMatrix in="SourceAlpha" type="matrix" values="0 0 0 0 0 0 0 0 0 0 0 0 0 0 0 0 0 0 127 0" result="hardAlpha"/>
<feOffset dy="4"/>
<feGaussianBlur stdDeviation="4"/>
<feComposite in2="hardAlpha" operator="arithmetic" k2="-1" k3="1"/>
<feColorMatrix type="matrix" values="0 0 0 0 1 0 0 0 0 1 0 0 0 0 1 0 0 0 1 0"/>
<feBlend mode="normal" in2="effect1_innerShadow_15_145" result="effect2_innerShadow_15_145"/>
</filter>
<linearGradient id="paint0_linear_15_145" x1="24.5" y1="86.1039" x2="116" y2="57.1039" gradientUnits="userSpaceOnUse">
<stop stop-color="#E40ECF"/>
<stop offset="1" stop-color="#12B5DC"/>
</linearGradient>
<linearGradient id="paint1_linear_15_145" x1="29" y1="41.1039" x2="119" y2="17.1039" gradientUnits="userSpaceOnUse">
<stop stop-color="#E40ECF"/>
<stop offset="1" stop-color="#16B3DC"/>
</linearGradient>
<linearGradient id="paint2_linear_15_145" x1="28" y1="31.1039" x2="28" y2="51.1039" gradientUnits="userSpaceOnUse">
<stop stop-color="#E40ECF"/>
<stop offset="1" stop-color="#12B5DC"/>
</linearGradient>
<linearGradient id="paint3_linear_15_145" x1="83" y1="71.1039" x2="83" y2="91.1039" gradientUnits="userSpaceOnUse">
<stop stop-color="#E40ECF"/>
<stop offset="1" stop-color="#12B5DC"/>
</linearGradient>
</defs>
</svg>
